<svg width="360" height="800" viewBox="0 0 360 800" fill="none" xmlns="http://www.w3.org/2000/svg">
<g clip-path="url(#clip0_0_183)">
<path d="M360 0H0V800H360V0Z" fill="#ED1B24"/>
<path d="M248.55 369.09H259.08V419.02H268.01V431.61H248.55V369.09Z" fill="white"/>
<path d="M268.93 372.41C268.93 374.62 267.14 376.42 264.92 376.42C262.7 376.42 260.91 374.63 260.91 372.41C260.91 370.19 262.7 368.4 264.92 368.4C267.14 368.4 268.93 370.19 268.93 372.41V372.41Z" stroke="white" stroke-width="1.67"/>
<path d="M263.36 374.48V370.27H265.22C265.59 370.27 265.88 370.31 266.08 370.38C266.27 370.46 266.43 370.59 266.55 370.78C266.67 370.97 266.73 371.18 266.73 371.41C266.73 371.71 266.63 371.96 266.44 372.16C266.25 372.37 265.95 372.49 265.55 372.55C265.7 372.62 265.81 372.69 265.89 372.76C266.05 372.91 266.21 373.1 266.35 373.32L267.08 374.46H266.38L265.83 373.59C265.67 373.34 265.53 373.14 265.43 373.01C265.33 372.88 265.23 372.78 265.15 372.73C265.07 372.68 264.98 372.64 264.9 372.62C264.84 372.61 264.73 372.6 264.59 372.6H263.95V374.47H263.39L263.36 374.48ZM263.92 372.13H265.12C265.37 372.13 265.57 372.1 265.72 372.05C265.86 372 265.97 371.91 266.05 371.8C266.12 371.68 266.16 371.56 266.16 371.42C266.16 371.22 266.09 371.06 265.94 370.93C265.8 370.8 265.57 370.74 265.26 370.74H263.93V372.13H263.92Z" fill="white"/>
<path d="M107.527 369.59L112.489 395.295L113.469 395.307L119.103 369.59H131.94V425.2L132.934 425.279L141.797 369.59H154.911L163.546 425.277L164.54 425.2V369.821H182.542C182.546 369.821 182.551 369.822 182.556 369.823C182.596 369.832 182.659 369.847 182.742 369.869C182.909 369.914 183.156 369.989 183.465 370.106C184.082 370.34 184.947 370.743 185.91 371.417C187.832 372.762 190.17 375.2 191.739 379.569L192.706 379.334L191.411 369.59H201.635L206.837 401.46L207.823 401.465L213.252 369.821H243.931V380.5H234.54V394.321H243.471V406.37H234.771V419.281H243.931V430.88H224.55V371.38L223.558 371.293L213.09 430.88H201.344L194.773 391.448L193.783 391.479V391.48C193.783 391.481 193.782 391.482 193.782 391.485C193.782 391.489 193.781 391.496 193.78 391.506C193.778 391.526 193.774 391.556 193.77 391.595C193.76 391.674 193.745 391.792 193.724 391.944C193.681 392.248 193.614 392.689 193.514 393.236C193.313 394.33 192.981 395.84 192.459 397.505C191.41 400.852 189.615 404.746 186.635 407.172L186.366 407.391L186.477 407.72L194.274 430.88H184.327L176.658 410.365L175.69 410.54V430.88H154.394L153.331 425.336L153.254 424.93H144.001L143.893 425.283L142.171 430.88H121.971V408.48L120.984 408.364L115.576 430.88H110.651L105.698 408.602L104.71 408.71V430.66L94.2402 430.869V369.59H107.527ZM148.963 394.197L147.976 394.208L145.226 413.218L145.143 413.79H152.271L152.173 413.207L148.963 394.197ZM175.45 379.849V399.392L175.98 399.36C177.983 399.238 179.47 398.519 180.557 397.49C181.635 396.47 182.294 395.169 182.696 393.915C183.099 392.661 183.254 391.429 183.309 390.515C183.336 390.057 183.339 389.675 183.335 389.406C183.333 389.272 183.329 389.166 183.325 389.092C183.323 389.056 183.322 389.027 183.321 389.007C183.321 388.997 183.32 388.989 183.319 388.984V388.974L183.318 388.961L183.316 388.948L183.258 388.516C182.621 384.115 180.903 381.9 179.231 380.807C178.378 380.249 177.56 379.998 176.952 379.889C176.648 379.834 176.396 379.815 176.216 379.809C176.126 379.806 176.053 379.805 176.001 379.807C175.975 379.808 175.955 379.809 175.939 379.81C175.932 379.81 175.926 379.81 175.921 379.811C175.918 379.811 175.916 379.812 175.914 379.812H175.911H175.91L175.45 379.849Z" fill="white"/>
<path d="M107.527 369.59L112.489 395.295L113.469 395.307L119.103 369.59H131.94V425.2L132.934 425.279L141.797 369.59H154.911L163.546 425.277L164.54 425.2V369.821H182.542C182.546 369.821 182.551 369.822 182.556 369.823C182.596 369.832 182.659 369.847 182.742 369.869C182.909 369.914 183.156 369.989 183.465 370.106C184.082 370.34 184.947 370.743 185.91 371.417C187.832 372.762 190.17 375.2 191.739 379.569L192.706 379.334L191.411 369.59H201.635L206.837 401.46L207.823 401.465L213.252 369.821H243.931V380.5H234.54V394.321H243.471V406.37H234.771V419.281H243.931V430.88H224.55V371.38L223.558 371.293L213.09 430.88H201.344L194.773 391.448L193.783 391.479V391.48C193.783 391.481 193.782 391.482 193.782 391.485C193.782 391.489 193.781 391.496 193.78 391.506C193.778 391.526 193.774 391.556 193.77 391.595C193.76 391.674 193.745 391.792 193.724 391.944C193.681 392.248 193.614 392.689 193.514 393.236C193.313 394.33 192.981 395.84 192.459 397.505C191.41 400.852 189.615 404.746 186.635 407.172L186.366 407.391L186.477 407.72L194.274 430.88H184.327L176.658 410.365L175.69 410.54V430.88H154.394L153.331 425.336L153.254 424.93H144.001L143.893 425.283L142.171 430.88H121.971V408.48L120.984 408.364L115.576 430.88H110.651L105.698 408.602L104.71 408.71V430.66L94.2402 430.869V369.59H107.527ZM148.963 394.197L147.976 394.208L145.226 413.218L145.143 413.79H152.271L152.173 413.207L148.963 394.197ZM175.45 379.849V399.392L175.98 399.36C177.983 399.238 179.47 398.519 180.557 397.49C181.635 396.47 182.294 395.169 182.696 393.915C183.099 392.661 183.254 391.429 183.309 390.515C183.336 390.057 183.339 389.675 183.335 389.406C183.333 389.272 183.329 389.166 183.325 389.092C183.323 389.056 183.322 389.027 183.321 389.007C183.321 388.997 183.32 388.989 183.319 388.984V388.974L183.318 388.961L183.316 388.948L183.258 388.516C182.621 384.115 180.903 381.9 179.231 380.807C178.378 380.249 177.56 379.998 176.952 379.889C176.648 379.834 176.396 379.815 176.216 379.809C176.126 379.806 176.053 379.805 176.001 379.807C175.975 379.808 175.955 379.809 175.939 379.81C175.932 379.81 175.926 379.81 175.921 379.811C175.918 379.811 175.916 379.812 175.914 379.812H175.911H175.91L175.45 379.849Z" stroke="black"/>
<path d="M107.527 369.59L112.489 395.295L113.469 395.307L119.103 369.59H131.94V425.2L132.934 425.279L141.797 369.59H154.911L163.546 425.277L164.54 425.2V369.821H182.542C182.546 369.821 182.551 369.822 182.556 369.823C182.596 369.832 182.659 369.847 182.742 369.869C182.909 369.914 183.156 369.989 183.465 370.106C184.082 370.34 184.947 370.743 185.91 371.417C187.832 372.762 190.17 375.2 191.739 379.569L192.706 379.334L191.411 369.59H201.635L206.837 401.46L207.823 401.465L213.252 369.821H243.931V380.5H234.54V394.321H243.471V406.37H234.771V419.281H243.931V430.88H224.55V371.38L223.558 371.293L213.09 430.88H201.344L194.773 391.448L193.783 391.479V391.48C193.783 391.481 193.782 391.482 193.782 391.485C193.782 391.489 193.781 391.496 193.78 391.506C193.778 391.526 193.774 391.556 193.77 391.595C193.76 391.674 193.745 391.792 193.724 391.944C193.681 392.248 193.614 392.689 193.514 393.236C193.313 394.33 192.981 395.84 192.459 397.505C191.41 400.852 189.615 404.746 186.635 407.172L186.366 407.391L186.477 407.72L194.274 430.88H184.327L176.658 410.365L175.69 410.54V430.88H154.394L153.331 425.336L153.254 424.93H144.001L143.893 425.283L142.171 430.88H121.971V408.48L120.984 408.364L115.576 430.88H110.651L105.698 408.602L104.71 408.71V430.66L94.2402 430.869V369.59H107.527ZM148.963 394.197L147.976 394.208L145.226 413.218L145.143 413.79H152.271L152.173 413.207L148.963 394.197ZM175.45 379.849V399.392L175.98 399.36C177.983 399.238 179.47 398.519 180.557 397.49C181.635 396.47 182.294 395.169 182.696 393.915C183.099 392.661 183.254 391.429 183.309 390.515C183.336 390.057 183.339 389.675 183.335 389.406C183.333 389.272 183.329 389.166 183.325 389.092C183.323 389.056 183.322 389.027 183.321 389.007C183.321 388.997 183.32 388.989 183.319 388.984V388.974L183.318 388.961L183.316 388.948L183.258 388.516C182.621 384.115 180.903 381.9 179.231 380.807C178.378 380.249 177.56 379.998 176.952 379.889C176.648 379.834 176.396 379.815 176.216 379.809C176.126 379.806 176.053 379.805 176.001 379.807C175.975 379.808 175.955 379.809 175.939 379.81C175.932 379.81 175.926 379.81 175.921 379.811C175.918 379.811 175.916 379.812 175.914 379.812H175.911H175.91L175.45 379.849Z" stroke="black" stroke-opacity="0.2"/>
</g>
<defs>
<clipPath id="clip0_0_183">
<rect width="360" height="800" fill="white"/>
</clipPath>
</defs>
</svg>
