<svg xmlns="http://www.w3.org/2000/svg" viewBox="0 0 32 32"><title>news android app aplication phone</title><g id="news_android_app_aplication_phone" data-name="news android app aplication phone"><path d="M30.56,8.47a8,8,0,0,0-7-7,64.29,64.29,0,0,0-15.06,0,8,8,0,0,0-7,7,64.29,64.29,0,0,0,0,15.06,8,8,0,0,0,7,7,64.29,64.29,0,0,0,15.06,0,8,8,0,0,0,7-7A64.29,64.29,0,0,0,30.56,8.47Zm-2,14.83a6,6,0,0,1-5.28,5.28,63.65,63.65,0,0,1-14.6,0A6,6,0,0,1,3.42,23.3a63.65,63.65,0,0,1,0-14.6A6,6,0,0,1,8.7,3.42a63.65,63.65,0,0,1,14.6,0A6,6,0,0,1,28.58,8.7,63.65,63.65,0,0,1,28.58,23.3Z"/><path d="M13,7H9A2,2,0,0,0,7,9v6a2,2,0,0,0,2,2h4a2,2,0,0,0,2-2V9A2,2,0,0,0,13,7ZM9,15V9h4v6Z"/><path d="M14,19H10a1,1,0,0,0,0,2h4a1,1,0,0,0,0-2Z"/><path d="M14,23H8a1,1,0,0,0,0,2h6a1,1,0,0,0,0-2Z"/><path d="M25,11H18a1,1,0,0,0,0,2h7a1,1,0,0,0,0-2Z"/><path d="M25,7H18a1,1,0,0,0,0,2h7a1,1,0,0,0,0-2Z"/><path d="M25,15H18a1,1,0,0,0,0,2h7a1,1,0,0,0,0-2Z"/><path d="M25,19H18a1,1,0,0,0,0,2h7a1,1,0,0,0,0-2Z"/><path d="M23,23H18a1,1,0,0,0,0,2h5a1,1,0,0,0,0-2Z"/></g></svg>